<svg id="Layer_1" data-name="Layer 1" xmlns="http://www.w3.org/2000/svg" viewBox="0 0 10 10"><defs><style>.cls-1{fill:#f7971d;}.cls-2{fill:#ca2026;}.cls-3{fill:#fff;}.cls-4,.cls-5{fill:#22205f;}.cls-5{fill-rule:evenodd;}</style></defs><path class="cls-1" d="M5,7.16A2.91,2.91,0,1,0,4,5,2.9,2.9,0,0,0,5,7.16"/><path class="cls-1" d="M9.49,6.63a.09.09,0,1,1,.18,0,.09.09,0,1,1-.18,0m.09.07a.07.07,0,0,0,.07-.07.07.07,0,1,0-.14,0,.07.07,0,0,0,.07.07m0,0h0V6.58h0s0,0,0,0,0,0,0,0v0h0v0h0Zm0,0h0Z"/><path class="cls-2" d="M5.94,4.69c0-.1,0-.21-.05-.31H4.11c0-.1,0-.21.08-.31H5.81c0-.1-.08-.21-.13-.31H4.32c0-.1.1-.2.16-.3h1a2.26,2.26,0,0,0-.23-.31H4.71A2.13,2.13,0,0,1,5,2.84,2.92,2.92,0,1,0,5,7.16a2.13,2.13,0,0,0,.29-.31H4.71a3.55,3.55,0,0,1-.23-.31h1a3,3,0,0,0,.16-.31H4.32c-.05-.1-.09-.2-.13-.3H5.81c0-.1.06-.21.08-.31s0-.21.05-.31S6,5.1,6,5s0-.21,0-.31"/><path class="cls-3" d="M9.49,5.68a.09.09,0,1,1,.18,0,.09.09,0,0,1-.18,0m.09.07a.07.07,0,0,0,.07-.07.07.07,0,1,0-.14,0,.07.07,0,0,0,.07.07m0,0h0V5.63h0s0,0,0,0,0,0,0,0v0h0v0h0Zm0,0h0Z"/><path class="cls-4" d="M4,5.84a.8.8,0,0,1-.24,0,.23.23,0,0,1-.24-.26.41.41,0,0,1,0-.11l0-.12V5.3l.14-.82H4l0,.17h.19l0,.31H3.93l-.08.49v0c0,.06,0,.09.1.09h.1l0,.26"/><path class="cls-4" d="M5,5.83a1.26,1.26,0,0,1-.33,0,.49.49,0,0,1-.54-.54c0-.41.24-.72.56-.72a.4.4,0,0,1,.42.44,1.18,1.18,0,0,1,0,.3H4.44a.06.06,0,0,0,0,0c0,.14.1.21.28.21A.8.8,0,0,0,5,5.53l0,.3M4.8,5.12V5.05a.14.14,0,0,0-.15-.15c-.1,0-.17.08-.2.21Z"/><polygon class="cls-4" points="1.59 5.86 1.28 5.86 1.46 4.72 1.05 5.86 0.84 5.86 0.81 4.73 0.62 5.86 0.31 5.86 0.56 4.38 1.01 4.38 1.03 5.29 1.33 4.38 1.84 4.38 1.59 5.86"/><path class="cls-4" d="M2.35,5.32H2.29Q2,5.32,2,5.5a.11.11,0,0,0,.11.12c.16,0,.22-.12.22-.3m.25.54H2.33V5.73A.37.37,0,0,1,2,5.88a.31.31,0,0,1-.28-.33.41.41,0,0,1,0-.16c.05-.18.23-.3.52-.3h.14a.28.28,0,0,0,0-.08c0-.08-.06-.1-.21-.1a1,1,0,0,0-.26,0L1.9,5h0l.05-.27a1.35,1.35,0,0,1,.37-.06c.27,0,.41.12.41.35a1.09,1.09,0,0,1,0,.24l-.07.42v.22Z"/><path class="cls-4" d="M6.51,4.67a.55.55,0,0,1,.28.08l0-.33-.07,0-.13,0H6.5a.61.61,0,0,0-.35.06A.75.75,0,0,0,6,4.57l0,0-.32.23,0-.13H5.28L5.09,5.86h.32l.11-.65.07-.12A.15.15,0,0,1,5.76,5h0a1.52,1.52,0,0,0,0,.23.56.56,0,0,0,.57.63,1.1,1.1,0,0,0,.28,0l0-.34a.51.51,0,0,1-.27.08c-.18,0-.29-.14-.29-.36s.16-.55.4-.55"/><path class="cls-4" d="M9.18,4.38l-.07.42a.32.32,0,0,0-.29-.17.49.49,0,0,0-.41.27h0l-.2-.12V4.65H7.89L7.7,5.86H8l.11-.65.1-.12A.17.17,0,0,1,8.36,5a1,1,0,0,0-.06.35c0,.3.16.5.39.5A.39.39,0,0,0,9,5.74v.12h.3l.24-1.48H9.18M8.8,5.57c-.11,0-.16-.08-.16-.23s.1-.41.24-.41.17.09.17.24-.1.4-.25.4"/><path class="cls-4" d="M7.34,5.32H7.28Q7,5.32,7,5.5a.11.11,0,0,0,.11.12c.15,0,.21-.12.22-.3m.25.54H7.32V5.73A.35.35,0,0,1,7,5.88a.31.31,0,0,1-.29-.33c0-.29.22-.46.56-.46H7.4a.28.28,0,0,0,0-.08c0-.08-.07-.1-.21-.1a1.12,1.12,0,0,0-.27,0l0,0h0l0-.27a1.29,1.29,0,0,1,.36-.06c.28,0,.42.12.42.35a1.36,1.36,0,0,1,0,.24l-.06.42v.22Z"/><path class="cls-5" d="M3.26,4.91l.24,0,0-.28-.29,0c-.35,0-.47.19-.47.41A.35.35,0,0,0,3,5.37c.13.06.15.07.15.12s-.07.12-.19.12a.69.69,0,0,1-.28-.05l0,.28h.06l.09,0H3c.35,0,.49-.14.49-.41a.34.34,0,0,0-.23-.33c-.14-.06-.15-.07-.15-.13s.06-.1.15-.1"/><path class="cls-3" d="M6.93,4.33l0,.32a.75.75,0,0,0-.29-.08c-.23,0-.4.23-.4.56s.11.36.3.36a.67.67,0,0,0,.27-.08l-.06.34a1,1,0,0,1-.28,0c-.34,0-.55-.24-.55-.64s.29-.9.71-.9l.14,0,.13,0,.08,0"/><path class="cls-3" d="M5.91,4.55h0c-.1,0-.16,0-.26.19l0-.18H5.36l-.19,1.2h.32c.11-.73.14-.86.29-.86h0a1.43,1.43,0,0,1,.12-.35h0"/><path class="cls-3" d="M4.09,5.75a.66.66,0,0,1-.23,0,.24.24,0,0,1-.25-.27.34.34,0,0,1,0-.1l0-.12,0-.1.13-.82h.32l0,.18h.16l0,.29H4l-.09.51v0c0,.06,0,.08.11.08h.08l0,.27"/><path class="cls-3" d="M2.87,4.94a.37.37,0,0,0,.24.34c.13.06.15.07.15.13s0,.11-.18.11a1,1,0,0,1-.28,0l0,.28h.33c.34,0,.49-.12.49-.4a.32.32,0,0,0-.22-.33C3.21,5,3.2,5,3.2,4.92s0-.1.15-.1l.23,0,0-.28a1.49,1.49,0,0,0-.28,0c-.36,0-.48.19-.48.41"/><path class="cls-3" d="M9.35,5.76h-.3V5.65a.36.36,0,0,1-.29.13c-.23,0-.38-.2-.38-.5s.23-.74.51-.74a.36.36,0,0,1,.31.17l.06-.43h.32L9.35,5.76m-.47-.28c.15,0,.25-.17.25-.4S9.07,4.84,9,4.84s-.24.17-.24.4,0,.24.16.24"/><path class="cls-3" d="M5.06,5.74a1.26,1.26,0,0,1-.33,0,.49.49,0,0,1-.54-.54c0-.42.24-.72.56-.72A.4.4,0,0,1,5.17,5a1.24,1.24,0,0,1,0,.3H4.51a0,0,0,0,0,0,0c0,.14.1.21.28.21a.78.78,0,0,0,.33-.07l-.05.3M4.88,5V5a.13.13,0,0,0-.15-.15c-.1,0-.17.07-.2.21Z"/><polygon class="cls-3" points="1.67 5.76 1.36 5.76 1.54 4.63 1.13 5.76 0.92 5.76 0.89 4.63 0.7 5.76 0.4 5.76 0.65 4.29 1.11 4.29 1.12 5.2 1.43 4.29 1.92 4.29 1.67 5.76"/><path class="cls-3" d="M2.45,5.23H2.38c-.18,0-.27.06-.27.19a.12.12,0,0,0,.12.12c.12,0,.22-.12.22-.3m.23.53H2.42V5.64a.4.4,0,0,1-.34.14.29.29,0,0,1-.28-.32c0-.3.2-.47.55-.47h.13a.25.25,0,0,0,0-.08c0-.08,0-.11-.2-.11a1,1,0,0,0-.26,0H2L2,4.6a1.18,1.18,0,0,1,.38-.07c.27,0,.41.13.41.36a1.36,1.36,0,0,1,0,.24l-.07.42v.21Z"/><path class="cls-3" d="M7.44,5.23H7.37c-.18,0-.27.06-.27.19a.11.11,0,0,0,.11.12c.13,0,.22-.12.23-.3m.23.53H7.41V5.64a.38.38,0,0,1-.33.14.29.29,0,0,1-.29-.32c0-.3.21-.47.56-.47h.13a.25.25,0,0,0,0-.08c0-.08-.06-.11-.2-.11a1.1,1.1,0,0,0-.27,0H7L7,4.6a1.13,1.13,0,0,1,.37-.07c.28,0,.42.13.42.36a.92.92,0,0,1,0,.24l-.06.42v.21Z"/><path class="cls-3" d="M8.52,4.55h0c-.11,0-.17,0-.26.19l0-.18H8l-.19,1.2h.31c.12-.73.15-.86.3-.86h0a1.43,1.43,0,0,1,.12-.35h0"/></svg>